<svg width="3000" height="1251" viewBox="0 0 3000 1251" fill="none" xmlns="http://www.w3.org/2000/svg">
<path d="M1217.45 733.342C1217.28 734.996 1217.28 735.908 1217.28 735.908C1217.28 734.996 1217.39 734.198 1217.45 733.342Z" fill="#1D1D1B"/>
<path d="M1791.3 458.738C1791.13 457.997 1790.96 457.256 1790.79 456.572L1790.45 455.09H1748.71V454.006H1766.78L1748.48 403.669H1711.36L1711.59 404.239C1713.01 408.401 1713.75 413.075 1713.75 418.035V436.904C1713.75 446.596 1717.97 456.458 1726.13 456.458C1730.86 456.458 1734.68 454.748 1739.18 450.586L1739.87 451.213C1734.91 456.458 1728.98 458.681 1720.03 458.681C1713.3 458.681 1707.54 457.028 1702.86 453.835L1702.01 453.208C1695.91 448.534 1691.91 440.895 1690.2 430.519L1689.92 428.866L1689.63 426.358C1689.63 426.358 1689.63 426.187 1689.63 425.959L1679.43 454.006H1693.97V455.09H1663.58V454.006H1678.29L1689.52 423.166C1689.41 421.284 1689.29 419.118 1689.29 417.636V404.182C1689.29 387.593 1677.09 378.13 1655.82 378.13H1634.89V454.063H1652.97V455.147H1582.15V454.063H1600.23L1581.92 403.726H1531.17L1513.04 453.55L1513.78 453.379C1537.62 449.275 1548.56 430.918 1548.68 411.65H1549.76C1549.76 411.65 1548.45 640.534 1480.03 847.699C1455.96 924.317 1431.1 988.906 1425.74 1000.65C1403.79 1053.21 1367.7 1118.94 1333.71 1152.86C1295.45 1190.09 1254.91 1211.98 1192.47 1211.98C1094.97 1211.98 1051.17 1138.61 1051.17 1054.29C1051.17 989.704 1120.06 646.235 1243.9 507.194C1283.31 462.33 1328.64 454.063 1388.85 454.063H1435.15L1520.11 307.156H1485.73C1485.73 307.156 1458.19 305.046 1443.08 330.015L1439.71 336.799C1398.54 406.462 1332.4 445.398 1324.59 449.446C1311.36 455.717 1297.9 461.474 1284.22 466.776C1248.41 480.515 1213.28 500.809 1180.21 526.007C1080.08 602.34 998.601 724.05 973.683 847.699C967.183 729.637 964.56 592.192 964.56 557.76C964.56 386.624 976.078 142.29 1127.41 45.4919C1204.84 -4.04752 1284.9 6.04278 1284.9 6.04278C1305.94 8.26606 1339.53 14.8789 1374.08 35.3446C1432.01 69.72 1470.33 136.533 1472.44 214.405C1473.3 246.101 1467.42 274.775 1457.5 300.372L1454.77 306.015H1546.91L1546.28 307.099L1461.44 454.006H1506.08C1507.17 454.006 1508.31 454.006 1509.39 453.892C1510.13 453.892 1510.87 453.778 1511.62 453.664H1511.84L1567.5 300.828H1568.58V300.942L1612.31 421.227V307.099H1594.35V306.015H1656.28C1686.04 306.015 1706.8 321.464 1706.8 343.526C1706.8 359.659 1692.54 372.999 1671.39 376.761L1667.51 377.275L1671.44 377.674C1684.33 379.213 1694.48 383.146 1701.72 389.531L1722.59 332.296L1732.4 306.015C1641.51 132.542 1479.85 0 1283.08 0C983.092 0 766.071 327.564 766.071 619.727C766.071 641.789 767.098 663.622 769.151 685.171C698.844 536.781 525.502 420.258 344.404 449.389C350.448 447.109 739.386 299.745 801.025 6.72687C798.402 13.2257 791.845 21.2637 785.287 28.3326C778.673 35.4016 772.059 41.5013 769.265 44.0097C616.563 175.526 285.673 58.0905 261.667 48.9693C232.302 37.8529 209.151 27.1355 195.124 20.3516C191.019 52.6748 186.913 84.9409 182.808 117.207L176.251 169.597C175.509 175.355 174.768 181.169 174.084 186.927V187.212C174.084 187.212 174.084 187.041 174.084 186.927C173.97 186.927 173.856 186.927 173.742 186.87L174.084 187.212C173.514 191.773 172.943 196.333 172.373 200.951L170.035 219.592C151.276 368.895 132.744 515.859 113.642 665.219C114.155 663.166 115.125 661.057 115.809 658.834C152.017 546.586 256.308 451.156 393.955 451.156C572.373 451.156 597.519 679.3 597.519 854.882C597.519 1101.1 519.629 1244.07 354.839 1244.07C220.841 1244.07 119.458 1180.68 119.458 1122.82C119.458 1101.04 130.349 1072.08 162.965 1057.66C215.481 1032.29 238.973 996.146 238.973 947.234C238.973 889.258 190.107 840.402 130.349 840.402C57.9329 840.402 0 903.794 0 983.377C0 1124.58 166.557 1247.72 353.071 1247.72C589.536 1247.72 791.617 1061.99 801.709 841.371C878.915 1076.13 1072.5 1250 1288.27 1250C1569.66 1250 1812 956.127 1812 619.67C1812 566.026 1804.82 511.698 1791.36 458.681" fill="#1D1D1B"/>
<path d="M1702.58 390.386L1703.72 391.526C1706.74 394.662 1709.13 398.31 1710.79 402.358L1710.9 402.643H1748.08L1723.1 333.949L1702.58 390.386Z" fill="#1D1D1B"/>
<path d="M1531.52 402.586H1581.47L1556.55 333.892L1531.52 402.586Z" fill="#1D1D1B"/>
<path d="M1683.36 343.754C1683.36 319.811 1672.07 307.156 1650.8 307.156H1634.84V377.047H1655.76C1676.92 377.047 1683.42 369.294 1683.42 343.811" fill="#1D1D1B"/>
</svg>